<?xml version="1.0" encoding="UTF-8"?>
<!-- Created with Inkscape (http://www.inkscape.org/) -->
<svg width="74.708mm" height="53.772mm" version="1.1" viewBox="0 0 74.708 53.772" xmlns="http://www.w3.org/2000/svg">
 <g transform="translate(-111.12 -13.229)">
  <g transform="matrix(.44147 0 0 .46926 26.881 -208.09)" stroke-width=".90444">
   <path d="m258.99 476.12c-5.6649 0.12629-11.364 1.795-16.353 5.1721-11.681 7.9068-15.158 22.259-9.545 33.867l-42.265 28.609v13.19l48.911-33.108c9.9145 8.6961 25.486 10.156 37.167 2.2489 13.304-9.0055 15.972-26.373 6.6803-38.522-5.8072-7.5929-15.155-11.667-24.596-11.457zm-0.20254 10.896c5.5789-0.10618 11.25 2.3359 14.977 7.2088 5.9629 7.7966 4.0694 18.055-3.5063 23.183-6.0875 4.1206-14.345 3.9118-20.45-0.3731l13.287-8.9933-6.6475-8.692-13.285 8.9932c-2.3779-6.8063 0.0353-14.238 6.1224-18.358 2.8409-1.923 6.1552-2.904 9.5025-2.9677z" fill="#ff7f2a"/>
   <path d="m329.97 471.64c-5.6649 0.1263-11.364 1.795-16.353 5.1721-11.681 7.9068-15.16 22.259-9.5462 33.867l-111.6 75.541h19.487l98.761-66.849c9.9145 8.6961 25.485 10.155 37.166 2.2477 13.304-9.0055 15.972-26.373 6.6803-38.522-5.8072-7.5929-15.153-11.667-24.595-11.457zm-0.20254 10.898c5.5789-0.10619 11.25 2.3348 14.977 7.2076 5.9629 7.7966 4.0694 18.055-3.5063 23.183-6.0875 4.1206-14.346 3.9118-20.451-0.3731l13.287-8.9933-6.6463-8.692-13.285 8.9933c-2.3779-6.8063 0.0353-14.238 6.1224-18.358 2.8409-1.923 6.1552-2.9029 9.5025-2.9666z" fill="#00aad4"/>
   <path d="m312.6 528.31c-5.6649 0.1263-11.364 1.795-16.353 5.1721-11.681 7.9068-15.158 22.259-9.545 33.867l-27.883 18.874h19.487l15.043-10.182c9.9145 8.6961 25.486 10.155 37.167 2.2477 13.304-9.0055 15.972-26.373 6.6803-38.522-5.8072-7.5929-15.155-11.667-24.596-11.457zm-0.20255 10.898c5.5789-0.10619 11.25 2.3348 14.977 7.2076 5.9629 7.7966 4.0694 18.055-3.5063 23.183-6.0875 4.1206-14.345 3.9118-20.45-0.3731l13.287-8.9933-6.6475-8.692-13.285 8.9933c-2.3779-6.8063 0.0353-14.238 6.1224-18.358 2.8409-1.923 6.1552-2.9029 9.5025-2.9666z" fill="#55d400"/>
  </g>
 </g>
</svg>
